<svg width="32" height="32" viewBox="0 0 32 32" fill="none" xmlns="http://www.w3.org/2000/svg">
<g clip-path="url(#clip0_0_2660)">
<path fill-rule="evenodd" clip-rule="evenodd" d="M2.66663 16C2.66663 8.65342 8.6533 2.66675 15.9999 2.66675C23.3466 2.66675 29.3333 8.65342 29.3333 16C29.3333 23.3467 23.3466 29.3334 15.9999 29.3334C8.6533 29.3334 2.66663 23.3467 2.66663 16ZM14.8133 20.4934L22.3733 12.9334C22.7599 12.5334 22.7599 11.9067 22.3733 11.5201C21.9866 11.1334 21.3466 11.1334 20.9599 11.5201L14.1066 18.3734L11.04 15.3067C10.6533 14.92 10.0133 14.92 9.62663 15.3067C9.23996 15.6934 9.23996 16.3334 9.62663 16.72L13.3999 20.4934C13.5866 20.68 13.8399 20.7867 14.1066 20.7867C14.3733 20.7867 14.6266 20.68 14.8133 20.4934Z" fill="#E23E3E"/>
</g>
<defs>
<clipPath id="clip0_0_2660">
<rect width="29.3333" height="29.3333" fill="white" transform="translate(2.66663 2.66675)"/>
</clipPath>
</defs>
</svg>
